<?xml version="1.0" encoding="UTF-8" standalone="no"?>
<!-- Created with Inkscape (http://www.inkscape.org/) -->

<svg
   width="53.458263mm"
   height="13.999998mm"
   viewBox="0 0 53.458263 13.999998"
   version="1.1"
   id="svg1"
   xmlns="http://www.w3.org/2000/svg"
   xmlns:svg="http://www.w3.org/2000/svg">
  <defs
     id="defs1" />
  <g
     id="layer1"
     style="display:inline"
     transform="translate(-18.230391,-46.500002)">
    <g
       id="g10"
       style="display:none">
      <path
         style="fill:#30ff03;fill-opacity:1;stroke:#000000;stroke-width:1;stroke-linecap:round;stroke-linejoin:round;stroke-dasharray:none"
         d="M 23.5,60 45,57 66.5,60 c 0.695929,4.3581 0.611266,8.351924 -4.5,10 L 45,67 28,70 C 23.332627,67.933616 22.995357,64.135191 23.5,60 Z"
         id="path10" />
      <ellipse
         style="display:inline;fill:#000000;fill-opacity:1;stroke:#000000;stroke-width:0.995437;stroke-linecap:round;stroke-linejoin:round;stroke-dasharray:none"
         id="path7-2-2-2"
         cx="30.299999"
         cy="64.5"
         rx="3.5022814"
         ry="3.5022795" />
      <ellipse
         style="fill:#000000;fill-opacity:1;stroke:#000000;stroke-width:0.995437;stroke-linecap:round;stroke-linejoin:round;stroke-dasharray:none"
         id="path7-2-2-13"
         cx="59.700001"
         cy="64.5"
         rx="3.5022814"
         ry="3.5022795" />
    </g>
    <g
       id="g9"
       style="display:inline">
      <path
         style="fill:#e9ff03;fill-opacity:1;stroke:#000000;stroke-width:1;stroke-linecap:round;stroke-linejoin:round;stroke-dasharray:none"
         d="m 19,50 26,-3 26,3 c 0.654686,4.445952 -0.297474,8.120122 -4.5,10 L 45,57 23.5,60 C 19.197803,58.618197 18.159517,54.963312 19,50 Z"
         id="path9" />
      <ellipse
         style="fill:#000000;fill-opacity:1;stroke:#000000;stroke-width:0.995437;stroke-linecap:round;stroke-linejoin:round;stroke-dasharray:none"
         id="path7-2-2-1"
         cx="64.199997"
         cy="54.499996"
         rx="3.5022814"
         ry="3.5022795" />
      <ellipse
         style="fill:#000000;fill-opacity:1;stroke:#000000;stroke-width:0.995437;stroke-linecap:round;stroke-linejoin:round;stroke-dasharray:none"
         id="path7-2-2-9"
         cx="25.799999"
         cy="54.499996"
         rx="3.5022814"
         ry="3.5022795" />
    </g>
    <g
       id="g8"
       style="display:none">
      <path
         style="fill:#ffa403;fill-opacity:1;stroke:#000000;stroke-width:1;stroke-linecap:round;stroke-linejoin:round;stroke-dasharray:none"
         d="M 14.5,40 45,37 75.5,40 c 0.696374,4.351165 0.104058,8.105133 -4.5,10 L 45,47 19,50 C 14.165925,48.016173 13.935111,44.169122 14.5,40 Z"
         id="path8" />
      <ellipse
         style="fill:#000000;fill-opacity:1;stroke:#000000;stroke-width:0.995437;stroke-linecap:round;stroke-linejoin:round;stroke-dasharray:none"
         id="path7-2-2"
         cx="68.699997"
         cy="44.499996"
         rx="3.5022814"
         ry="3.5022795" />
      <ellipse
         style="fill:#000000;fill-opacity:1;stroke:#000000;stroke-width:0.995437;stroke-linecap:round;stroke-linejoin:round;stroke-dasharray:none"
         id="path7-2-2-6"
         cx="21.299999"
         cy="44.499996"
         rx="3.5022814"
         ry="3.5022795" />
    </g>
    <g
       id="g5"
       style="display:none">
      <path
         style="fill:#d100e2;fill-opacity:1;stroke:#000000;stroke-width:1;stroke-linecap:round;stroke-linejoin:round"
         d="M 10,30 45,10 80,30 45,27 Z"
         id="path1" />
      <path
         style="fill:#000000;fill-opacity:1;stroke:#000000;stroke-width:1;stroke-linecap:round;stroke-linejoin:round;stroke-dasharray:none"
         d="m 37,23 8,39 8,-39 z"
         id="path5" />
      <path
         style="fill:#e200a9;fill-opacity:1;stroke:#000000;stroke-width:1;stroke-linecap:round;stroke-linejoin:round"
         d="m 45,10 -20,11.5 12,1.5 8,8 8,-8 12,-1.5 z"
         id="path2" />
      <ellipse
         style="fill:#e200a9;fill-opacity:1;stroke:#000000;stroke-width:0.5;stroke-linecap:round;stroke-linejoin:round;stroke-dasharray:none"
         id="path3"
         cx="48.500031"
         cy="20.5"
         rx="1.9550292"
         ry="1.9550297" />
      <ellipse
         style="fill:#e200a9;fill-opacity:1;stroke:#000000;stroke-width:0.499993;stroke-linecap:round;stroke-linejoin:round;stroke-dasharray:none"
         id="path3-8"
         cx="41.5"
         cy="20.500002"
         rx="1.9550036"
         ry="1.9550037" />
      <circle
         style="fill:#000000;fill-opacity:1;stroke:#000000;stroke-width:0.514674;stroke-linecap:round;stroke-linejoin:round;stroke-dasharray:none"
         id="path4"
         cx="41.700001"
         cy="20.700001"
         r="1.2426631" />
      <circle
         style="fill:#000000;fill-opacity:1;stroke:#000000;stroke-width:0.514674;stroke-linecap:round;stroke-linejoin:round;stroke-dasharray:none"
         id="path4-1"
         cx="48.299999"
         cy="20.700001"
         r="1.2426631" />
    </g>
  </g>
</svg>
