<?xml version="1.0" encoding="UTF-8" standalone="no"?>
<!-- Created with Inkscape (http://www.inkscape.org/) -->

<svg
   width="71.794739mm"
   height="14mm"
   viewBox="0 0 71.794739 14"
   version="1.1"
   id="svg1"
   xmlns="http://www.w3.org/2000/svg"
   xmlns:svg="http://www.w3.org/2000/svg">
  <defs
     id="defs1" />
  <g
     id="layer1"
     style="display:inline"
     transform="translate(-9.0111168,-26.5)">
    <g
       id="g8"
       style="display:none">
      <path
         style="fill:#ffa403;fill-opacity:1;stroke:#000000;stroke-width:1;stroke-linecap:round;stroke-linejoin:round;stroke-dasharray:none"
         d="M 14.5,40 45,37 75.5,40 c 0.696374,4.351165 0.104058,8.105133 -4.5,10 L 45,47 19,50 C 14.165925,48.016173 13.935111,44.169122 14.5,40 Z"
         id="path8" />
      <ellipse
         style="fill:#000000;fill-opacity:1;stroke:#000000;stroke-width:0.995437;stroke-linecap:round;stroke-linejoin:round;stroke-dasharray:none"
         id="path7-2-2"
         cx="68.699997"
         cy="44.499996"
         rx="3.5022814"
         ry="3.5022795" />
      <ellipse
         style="fill:#000000;fill-opacity:1;stroke:#000000;stroke-width:0.995437;stroke-linecap:round;stroke-linejoin:round;stroke-dasharray:none"
         id="path7-2-2-6"
         cx="21.299999"
         cy="44.499996"
         rx="3.5022814"
         ry="3.5022795" />
    </g>
    <g
       id="g7"
       style="display:inline">
      <path
         style="fill:#ff0c0c;fill-opacity:1;stroke:#000000;stroke-width:1;stroke-linecap:round;stroke-linejoin:round;stroke-dasharray:none"
         d="m 10,30 35,-3 35,3 c 1.333539,4.115173 -1.990449,8.801303 -4.5,10 L 45,37 14.5,40 C 10.795337,38.532237 8.4452625,33.48062 10,30 Z"
         id="path6" />
      <ellipse
         style="fill:#000000;fill-opacity:1;stroke:#000000;stroke-width:0.995437;stroke-linecap:round;stroke-linejoin:round;stroke-dasharray:none"
         id="path7"
         cx="16.799999"
         cy="34.499996"
         rx="3.5022817"
         ry="3.5022795" />
      <ellipse
         style="fill:#000000;fill-opacity:1;stroke:#000000;stroke-width:0.995437;stroke-linecap:round;stroke-linejoin:round;stroke-dasharray:none"
         id="path7-2"
         cx="73.199997"
         cy="34.499996"
         rx="3.5022817"
         ry="3.5022795" />
    </g>
    <g
       id="g5"
       style="display:none">
      <path
         style="fill:#d100e2;fill-opacity:1;stroke:#000000;stroke-width:1;stroke-linecap:round;stroke-linejoin:round"
         d="M 10,30 45,10 80,30 45,27 Z"
         id="path1" />
      <path
         style="fill:#000000;fill-opacity:1;stroke:#000000;stroke-width:1;stroke-linecap:round;stroke-linejoin:round;stroke-dasharray:none"
         d="m 37,23 8,39 8,-39 z"
         id="path5" />
      <path
         style="fill:#e200a9;fill-opacity:1;stroke:#000000;stroke-width:1;stroke-linecap:round;stroke-linejoin:round"
         d="m 45,10 -20,11.5 12,1.5 8,8 8,-8 12,-1.5 z"
         id="path2" />
      <ellipse
         style="fill:#e200a9;fill-opacity:1;stroke:#000000;stroke-width:0.5;stroke-linecap:round;stroke-linejoin:round;stroke-dasharray:none"
         id="path3"
         cx="48.500031"
         cy="20.5"
         rx="1.9550292"
         ry="1.9550297" />
      <ellipse
         style="fill:#e200a9;fill-opacity:1;stroke:#000000;stroke-width:0.499993;stroke-linecap:round;stroke-linejoin:round;stroke-dasharray:none"
         id="path3-8"
         cx="41.5"
         cy="20.500002"
         rx="1.9550036"
         ry="1.9550037" />
      <circle
         style="fill:#000000;fill-opacity:1;stroke:#000000;stroke-width:0.514674;stroke-linecap:round;stroke-linejoin:round;stroke-dasharray:none"
         id="path4"
         cx="41.700001"
         cy="20.700001"
         r="1.2426631" />
      <circle
         style="fill:#000000;fill-opacity:1;stroke:#000000;stroke-width:0.514674;stroke-linecap:round;stroke-linejoin:round;stroke-dasharray:none"
         id="path4-1"
         cx="48.299999"
         cy="20.700001"
         r="1.2426631" />
    </g>
  </g>
</svg>
