<svg viewBox="0 0 24 24" xmlns="http://www.w3.org/2000/svg" xmlns:xlink="http://www.w3.org/1999/xlink" width="24.000000" height="24.000000" fill="none">
	<defs>
		<clipPath id="clipPath_0">
			<rect width="20.000000" height="20.000000" x="2.000000" y="2.000000" fill="rgb(255,255,255)" />
		</clipPath>
		<clipPath id="clipPath_1">
			<rect width="20.000000" height="20.000000" x="2.000000" y="2.000000" fill="rgb(255,255,255)" />
		</clipPath>
	</defs>
	<rect id="icon" width="24.000000" height="24.000000" x="0.000000" y="0.000000" />
	<g id="iconContainer" customFrame="url(#clipPath_0)">
		<rect id="iconContainer" width="20.000000" height="20.000000" x="2.000000" y="2.000000" />
		<g id="Viewbox" customFrame="url(#clipPath_1)">
			<rect id="Viewbox" width="20.000000" height="20.000000" x="2.000000" y="2.000000" />
			<path id="Save icon color" d="M12 1.5C17.799 1.5 22.5 6.20105 22.5 12C22.5 17.799 17.799 22.5 12 22.5C6.20105 22.5 1.5 17.799 1.5 12C1.5 6.20105 6.20105 1.5 12 1.5ZM12 3C16.9706 3 21 7.02942 21 12C21 16.9706 16.9706 21 12 21C7.02942 21 3 16.9706 3 12C3 7.02942 7.02942 3 12 3ZM12.7499 13.4949L12.75 6.74222L11.25 6.74222L11.2499 13.4949L12.7499 13.4949ZM12.7499 17.2341L12.7499 14.9949L11.2499 14.9949L11.2499 17.2341L12.7499 17.2341Z" fill="rgb(204,204,204)" fill-rule="evenodd" />
		</g>
	</g>
</svg>
